<?xml version="1.0" standalone="no"?>
<!DOCTYPE svg PUBLIC "-//W3C//DTD SVG 20010904//EN"
 "http://www.w3.org/TR/2001/REC-SVG-20010904/DTD/svg10.dtd">
<svg version="1.0" xmlns="http://www.w3.org/2000/svg"
 width="512.000000pt" height="512.000000pt" viewBox="0 0 512.000000 512.000000"
 preserveAspectRatio="xMidYMid meet">
<metadata>
Created by potrace 1.16, written by Peter Selinger 2001-2019
</metadata>
<g transform="translate(0.000000,512.000000) scale(0.100000,-0.100000)"
fill="#000000" stroke="none">
<path d="M2370 4604 c-264 -33 -550 -143 -760 -292 -122 -86 -306 -270 -392
-392 -122 -172 -222 -403 -270 -624 -19 -87 -22 -131 -22 -326 0 -195 3 -238
22 -327 47 -217 123 -400 235 -571 35 -53 178 -230 317 -392 816 -950 981
-1140 1002 -1154 29 -20 87 -20 116 0 21 14 186 204 1002 1154 139 162 282
339 317 392 112 171 188 354 235 571 30 139 33 493 5 632 -46 225 -149 468
-275 645 -86 122 -270 306 -392 392 -113 81 -299 174 -430 217 -176 57 -276
73 -485 76 -104 2 -206 1 -225 -1z m332 -215 c858 -92 1442 -908 1248 -1744
-42 -180 -137 -383 -243 -523 -80 -104 -1137 -1332 -1147 -1332 -10 0 -1079
1242 -1152 1338 -116 154 -218 390 -254 592 -25 134 -25 364 0 495 91 488 416
889 868 1074 222 91 451 124 680 100z"/>
<path d="M2387 3670 c-206 -52 -377 -189 -470 -376 -61 -120 -72 -172 -72
-329 1 -126 4 -148 28 -220 77 -222 239 -384 462 -462 73 -25 92 -27 225 -27
133 0 152 2 225 27 257 90 440 301 486 562 18 104 7 253 -26 350 -75 224 -235
384 -460 461 -110 37 -283 43 -398 14z m268 -205 c356 -75 522 -469 326 -772
-104 -160 -302 -252 -489 -224 -371 55 -557 471 -350 781 73 109 186 186 318
214 84 19 111 19 195 1z"/>
</g>
</svg>
