<?xml version="1.0" standalone="no"?>
<!DOCTYPE svg PUBLIC "-//W3C//DTD SVG 20010904//EN"
 "http://www.w3.org/TR/2001/REC-SVG-20010904/DTD/svg10.dtd">
<svg version="1.0" xmlns="http://www.w3.org/2000/svg"
 width="512.000000pt" height="512.000000pt" viewBox="0 0 512.000000 512.000000"
 preserveAspectRatio="xMidYMid meet">
<metadata>
Created by potrace 1.16, written by Peter Selinger 2001-2019
</metadata>
<g transform="translate(0.000000,512.000000) scale(0.100000,-0.100000)"
fill="#000000" stroke="none">
<path d="M2226 5104 c-935 -120 -1741 -761 -2070 -1645 -71 -192 -124 -415
-145 -611 -14 -125 -14 -451 0 -576 109 -1008 826 -1870 1801 -2166 249 -75
465 -106 748 -106 288 0 494 29 750 107 288 87 538 214 785 399 562 420 924
1042 1010 1734 20 162 20 478 0 640 -96 774 -540 1460 -1211 1872 -301 185
-656 309 -1014 353 -155 19 -502 18 -654 -1z m624 -410 c138 -18 346 -71 466
-117 305 -118 536 -268 764 -497 319 -318 515 -693 603 -1149 19 -101 22 -149
22 -371 0 -222 -3 -270 -22 -371 -67 -348 -199 -650 -407 -929 -90 -122 -294
-326 -416 -416 -630 -470 -1443 -568 -2154 -260 -250 108 -467 256 -666 456
-319 318 -516 694 -603 1149 -19 101 -22 149 -22 371 0 222 3 270 22 371 121
628 474 1143 1013 1474 406 250 911 354 1400 289z"/>
<path d="M2515 3831 c-68 -17 -109 -49 -139 -108 -14 -29 -16 -106 -16 -732 0
-470 3 -709 11 -728 25 -68 110 -123 189 -123 79 0 164 55 189 123 8 19 11
258 11 728 0 667 -1 702 -19 737 -10 20 -27 44 -37 53 -48 42 -132 64 -189 50z"/>
<path d="M2445 1876 c-63 -29 -128 -101 -145 -160 -7 -25 -11 -76 -8 -114 3
-55 10 -79 34 -118 81 -132 260 -169 391 -81 70 47 107 113 111 199 6 91 -12
148 -61 205 -81 91 -213 120 -322 69z"/>
</g>
</svg>
