<?xml version="1.0" standalone="no"?>
<!DOCTYPE svg PUBLIC "-//W3C//DTD SVG 20010904//EN"
 "http://www.w3.org/TR/2001/REC-SVG-20010904/DTD/svg10.dtd">
<svg version="1.0" xmlns="http://www.w3.org/2000/svg"
 width="512.000000pt" height="512.000000pt" viewBox="0 0 512.000000 512.000000"
 preserveAspectRatio="xMidYMid meet">
<metadata>
Created by potrace 1.16, written by Peter Selinger 2001-2019
</metadata>
<g transform="translate(0.000000,512.000000) scale(0.100000,-0.100000)"
fill="#000000" stroke="none">
<path d="M2265 5049 c-753 -90 -1432 -523 -1835 -1169 -181 -290 -309 -652
-355 -1003 -20 -156 -20 -478 0 -634 73 -556 319 -1058 715 -1453 323 -324
728 -554 1162 -660 233 -57 309 -65 613 -65 248 0 295 3 408 23 270 49 501
126 732 246 248 128 431 261 625 456 204 203 335 385 471 655 128 254 206 510
244 798 20 156 20 478 0 634 -73 556 -320 1058 -715 1453 -209 210 -412 354
-685 486 -223 108 -411 168 -672 215 -95 17 -167 22 -373 25 -140 1 -291 -2
-335 -7z m1186 -1001 c376 -103 583 -346 638 -751 15 -106 15 -1368 0 -1474
-55 -405 -261 -647 -638 -751 l-96 -27 -795 0 -795 0 -96 27 c-375 103 -588
352 -639 748 -12 98 -12 1382 0 1480 56 427 302 688 724 766 55 10 244 12 836
11 l765 -2 96 -27z"/>
<path d="M1905 3800 c-275 -18 -445 -116 -539 -312 -71 -151 -71 -150 -71
-938 1 -698 1 -706 23 -785 32 -116 76 -197 144 -271 66 -70 156 -121 263
-149 106 -28 385 -37 975 -32 638 5 673 8 816 77 146 70 248 209 291 395 17
74 18 136 18 775 0 639 -1 701 -18 775 -43 186 -145 325 -291 395 -146 70
-172 72 -866 75 -338 2 -673 -1 -745 -5z m1550 -299 c16 -9 40 -33 53 -52 20
-28 23 -43 20 -93 -4 -54 -8 -62 -45 -97 -51 -48 -98 -58 -159 -34 -143 54
-133 250 15 296 33 10 77 2 116 -20z m-735 -151 c422 -87 709 -501 636 -919
-56 -319 -276 -563 -592 -653 -107 -30 -293 -31 -405 0 -298 81 -528 324 -590
627 -60 288 54 597 290 785 191 152 425 209 661 160z"/>
<path d="M2455 3080 c-123 -25 -239 -99 -318 -202 -140 -185 -141 -447 -2
-633 176 -236 511 -284 743 -108 281 215 281 631 0 846 -119 90 -277 126 -423
97z"/>
</g>
</svg>
