<?xml version="1.0" standalone="no"?>
<!DOCTYPE svg PUBLIC "-//W3C//DTD SVG 20010904//EN"
 "http://www.w3.org/TR/2001/REC-SVG-20010904/DTD/svg10.dtd">
<svg version="1.0" xmlns="http://www.w3.org/2000/svg"
 width="512.000000pt" height="512.000000pt" viewBox="0 0 512.000000 512.000000"
 preserveAspectRatio="xMidYMid meet">
<metadata>
Created by potrace 1.16, written by Peter Selinger 2001-2019
</metadata>
<g transform="translate(0.000000,512.000000) scale(0.100000,-0.100000)"
fill="#000000" stroke="none">
<path d="M2310 5113 c-485 -49 -947 -234 -1330 -531 -117 -91 -316 -287 -413
-407 -279 -346 -461 -750 -539 -1199 -29 -172 -37 -551 -14 -726 43 -322 122
-581 263 -858 118 -233 256 -424 448 -621 414 -425 923 -678 1525 -757 174
-22 553 -15 726 15 262 45 485 117 719 232 248 122 448 263 654 464 397 387
647 864 742 1419 30 174 37 541 15 726 -92 751 -507 1419 -1141 1836 -329 216
-695 350 -1085 399 -113 14 -466 19 -570 8z m-642 -1242 c69 -35 126 -95 157
-162 23 -53 27 -71 23 -138 -4 -90 -31 -154 -91 -214 -148 -148 -401 -111
-501 72 -97 179 -6 396 194 462 47 16 172 4 218 -20z m1829 -855 c229 -74 347
-240 388 -546 11 -80 15 -241 15 -677 l0 -573 -275 0 -274 0 -3 558 -3 557
-24 58 c-28 71 -70 121 -125 150 -34 18 -58 22 -141 22 -90 0 -106 -3 -157
-28 -89 -44 -138 -114 -164 -236 -11 -52 -14 -176 -14 -573 l0 -508 -275 0
-275 0 0 895 0 895 265 0 265 0 0 -125 c0 -69 3 -125 8 -125 4 0 16 16 27 36
27 51 130 144 202 182 107 57 188 73 343 68 111 -3 150 -9 217 -30z m-1687
-901 l0 -895 -275 0 -275 0 0 895 0 895 275 0 275 0 0 -895z"/>
</g>
</svg>
